<svg width="32" height="32" viewBox="0 0 32 32" fill="none" xmlns="http://www.w3.org/2000/svg">
<path d="M10.667 14.6667L10.667 9.33332C10.667 6.38781 13.0548 3.99999 16.0003 3.99999V3.99999C18.9458 3.99999 21.3337 6.38781 21.3337 9.33332L21.3337 14.6667" stroke="black" stroke-width="1.5" stroke-linecap="round"/>
<path d="M5.02768 15.6678C5.17276 13.9269 5.24529 13.0565 5.81938 12.5282C6.39347 12 7.26693 12 9.01386 12L22.9861 12C24.7331 12 25.6065 12 26.1806 12.5282C26.7547 13.0565 26.8272 13.9269 26.9723 15.6678L27.8195 25.8339C27.904 26.8474 27.9462 27.3542 27.6491 27.6771C27.352 28 26.8435 28 25.8264 28L6.1736 28C5.15655 28 4.64802 28 4.35092 27.6771C4.05382 27.3542 4.09605 26.8474 4.18051 25.8339L5.02768 15.6678Z" stroke="black" stroke-width="1.5"/>
</svg>
