<svg width="208" height="30" viewBox="0 0 208 30" fill="none" xmlns="http://www.w3.org/2000/svg">
<path d="M31.291 28.2713H32.1012C33.8227 28.2713 35.1391 27.8645 35.9493 26.9492C36.7594 26.1357 37.2657 24.8137 37.2657 23.0848V5.8984C37.1644 4.98315 36.9619 4.27128 36.7594 3.7628C36.5568 3.25433 36.1518 2.74585 35.7467 2.44076C34.9366 1.7289 33.7214 1.32213 32.1012 1.32213H31.291V0.610269H49.2151V1.32213H48.4049C46.6834 1.32213 45.367 1.72891 44.5569 2.54247C43.7467 3.35603 43.3416 4.67805 43.3416 6.50856V23.0848C43.3416 24.8137 43.7467 26.1357 44.6581 26.9492C45.4682 27.7628 46.7847 28.2713 48.5062 28.2713H49.3164V29.0848H31.3923V28.2713H31.291Z" fill="#39333E"/>
<path d="M82.5315 0.711861H83.2404L83.4429 13.017H82.7341C82.2278 11.4915 81.8227 10.3729 81.4176 9.45763C81.0126 8.54238 80.6075 7.83051 80.1012 7.11864C78.7847 5.18644 77.0632 3.66102 75.0379 2.54237C73.0126 1.42373 70.886 0.813562 68.7594 0.813562C67.6455 0.813562 66.5316 1.01694 65.4176 1.42372C64.3037 1.8305 63.3923 2.33898 62.7847 3.05085C61.6708 4.16949 60.8607 5.69492 60.3543 7.72882C59.848 9.76272 59.5442 12.3051 59.5442 15.4576C59.5442 16.3729 59.5442 17.2881 59.6455 18.3051C59.7467 19.2203 59.848 20.0339 59.9493 20.7458C60.0506 21.4576 60.2531 22.1695 60.4556 22.8814C60.6581 23.5932 60.8607 24.1017 61.1645 24.6102C61.5695 25.322 62.0758 25.9322 62.5822 26.4407C63.0885 26.9492 63.7974 27.4576 64.5062 27.8644C65.2151 28.2712 66.0252 28.5763 66.8354 28.7797C67.6455 28.9831 68.4556 29.0848 69.367 29.0848C70.4809 29.0848 71.6961 28.983 72.81 28.678C73.924 28.3729 74.9366 27.9661 75.6455 27.5593C76.9619 26.6441 77.6708 25.4237 77.6708 23.7966V22.3729C77.6708 18.9153 75.9493 17.1864 72.5062 17.1864H70.0759V16.4746H89.5189V17.1864H88.9113C87.1898 17.1864 85.8733 17.5932 85.0632 18.5085C84.2531 19.322 83.7467 20.6441 83.7467 22.3729V29.0848H83.0379C82.4303 28.4746 81.9239 28.1695 81.4176 27.9661C81.0126 27.7627 80.405 27.661 79.6961 27.661C79.0885 27.661 78.5822 27.7627 78.0759 27.8644C77.5695 27.9661 76.8607 28.2712 75.9493 28.5763C74.4303 29.0848 73.3164 29.4915 72.405 29.6949C71.4936 29.8983 70.4809 30 69.1645 30C66.7341 30 64.5062 29.5932 62.4809 28.8813C60.4556 28.1695 58.6328 27.1525 57.1138 25.8305C55.5948 24.5085 54.3797 22.9831 53.5695 21.1525C52.7594 19.322 52.3544 17.3898 52.3544 15.3559C52.3544 14.1356 52.5569 12.9153 52.8607 11.6949C53.1645 10.4746 53.6708 9.35593 54.2784 8.33898C54.886 7.32203 55.5948 6.30509 56.5062 5.38983C57.5189 4.37288 58.7341 3.45762 59.9493 2.74576C61.1645 2.0339 62.5822 1.42374 63.9999 1.11865C65.4176 0.711871 66.8353 0.508475 68.2531 0.508475C69.6708 0.508475 71.0885 0.711864 72.405 1.01695C73.7214 1.42373 75.2404 1.9322 76.8607 2.74576C78.0758 3.35593 78.886 3.66102 79.3923 3.66102C79.8986 3.66102 80.405 3.45763 80.9113 3.05085C81.4176 2.23729 82.0252 1.62712 82.5315 0.711861Z" fill="#39333E"/>
<path d="M89.7216 0.610269H109.367V1.32213H107.139C105.418 1.32213 104.101 1.72891 103.291 2.64417C102.481 3.45773 101.975 4.77975 101.975 6.50856V20.9493C101.975 22.5764 102.38 24.0001 103.089 25.2204C103.798 26.4408 104.911 27.356 106.329 27.9662C107.747 28.5764 109.468 28.8814 111.392 28.8814C113.114 28.8814 114.734 28.6781 116.253 28.1696C117.772 27.6611 118.886 26.9492 119.797 26.1357C121.418 24.5086 122.228 22.1696 122.228 19.1187V8.94925C122.228 5.69501 121.317 3.45772 119.392 2.33908C118.886 2.03399 118.279 1.72891 117.671 1.62722C117.063 1.52552 116.253 1.42382 115.139 1.42382V0.711954H128.911V1.42382C128.101 1.52551 127.392 1.62721 126.886 1.7289C126.38 1.93229 125.873 2.13569 125.367 2.54247C124.557 3.15264 124.051 3.8645 123.646 4.88145C123.241 5.8984 123.038 7.01704 123.038 8.33907V19.7289C123.038 22.7797 122.228 25.017 120.608 26.6442C119.696 27.5594 118.684 28.1696 117.671 28.4747C115.544 29.2882 112.911 29.695 109.975 29.695C107.747 29.695 105.722 29.4916 104 29.0848C102.177 28.6781 100.658 28.0679 99.5443 27.2543C97.3165 25.7289 96.2026 23.4916 96.2026 20.6442V6.61026C96.2026 3.15264 94.4811 1.42382 91.038 1.42382H89.9241V0.610269H89.7216Z" fill="#39333E"/>
<path d="M143.696 14.3391H149.975C151.899 14.3391 153.418 14.1357 154.633 13.6272C155.848 13.1187 156.76 12.4069 157.367 11.4916C157.975 10.5764 158.279 9.25433 158.279 7.8306C158.279 3.45772 155.544 1.32213 150.076 1.32213H143.696V14.3391ZM150.076 15.1526H143.696V23.0848C143.696 24.8137 144.101 26.1357 145.013 26.9492C145.823 27.7628 147.139 28.2713 148.861 28.2713H149.671V29.0848H131.747V28.2713H132.557C134.279 28.2713 135.595 27.8645 136.405 26.9492C137.215 26.1357 137.722 24.8137 137.722 23.0848V6.50856C137.722 4.77975 137.316 3.45772 136.506 2.54247C135.696 1.72891 134.38 1.32213 132.557 1.32213H131.747V0.610269H151.899C154.835 0.610269 157.266 0.813649 158.987 1.22043C160.709 1.62721 162.127 2.33907 163.139 3.45771C163.747 4.06788 164.152 4.77975 164.557 5.49161C164.861 6.30517 165.063 7.11873 165.063 7.8306C165.063 9.96619 163.949 11.695 161.722 13.017C160.911 13.4238 159.798 13.8306 158.38 14.2374C156.962 14.5425 155.544 14.8475 154.127 14.9492C153.013 15.0509 153.215 15.0509 151.089 15.0509V15.1526C152.203 15.8645 153.114 16.4747 154.025 16.8815C154.937 17.3899 155.747 17.695 156.658 18.1018C157.57 18.4069 158.582 18.712 159.696 19.017L160.405 20.034C160.81 20.6442 161.215 21.1526 161.418 21.4577C161.62 21.7628 161.924 22.1696 162.127 22.5764C162.835 23.695 163.646 24.712 164.253 25.6272C164.962 26.4408 165.468 27.0509 165.975 27.4577C166.886 28.0679 168.101 28.373 169.722 28.373H170.532V29.1865H159.899L150.076 15.1526Z" fill="#39333E"/>
<path d="M188.152 6.71187L182.582 19.4237H193.823L188.152 6.71187ZM190.38 0H191.089L202.532 24.9153C202.937 25.7288 203.342 26.339 203.747 26.8475C204.152 27.3559 204.759 27.7627 205.266 27.9661C205.873 28.1695 206.481 28.2712 207.291 28.2712H208V29.0848H191.494V28.2712H193.62C194.734 28.2712 195.443 28.1695 195.949 27.8644C196.456 27.5593 196.658 27.1525 196.658 26.5424C196.658 26.1356 196.557 25.7288 196.354 25.1186C196.152 24.6102 195.747 23.5932 195.038 22.1695C195.038 22.0678 194.937 21.9661 194.835 21.7627C194.734 21.5593 194.633 21.3559 194.532 21.2542L194.025 20.2373H182.278L181.367 22.3729C181.063 23.0847 180.962 23.7966 180.962 24.5085C180.962 25.1187 181.165 25.7288 181.468 26.339C181.772 26.9491 182.278 27.4576 182.785 27.7627C183.19 27.9661 183.494 28.1695 183.797 28.1695C184.101 28.2712 184.506 28.2712 185.013 28.3729V29.1864H173.468V28.3729C174.278 28.2712 174.987 28.1695 175.494 27.9661C176 27.7627 176.506 27.4576 177.114 26.9492C178.532 25.8305 179.949 23.6949 181.367 20.6441L190.38 0Z" fill="#39333E"/>
<path d="M0.708873 4.57627C0.708873 2.74576 2.12658 1.32204 3.94936 1.32204H5.46835V0.508475H0V4.57627H0.708873Z" fill="#39333E"/>
<path d="M25.3164 25.017H24.5063C24.5063 26.8476 23.0886 28.2713 21.2658 28.2713H19.7468V29.0848H25.2152L25.3164 25.017Z" fill="#39333E"/>
<path d="M19.8481 0.610269C16.8101 0.610269 15.4937 2.44078 14.9873 3.66112C14.2785 5.18654 7.08859 20.1357 4.35442 25.6272C3.54429 27.2543 1.82278 28.2713 0 28.2713V29.0848H5.46835C8.40505 29.0848 9.82279 27.2543 10.3291 26.034C11.038 24.5086 20.7595 4.47466 20.7595 4.47466L20.962 4.06789C21.7722 2.44077 23.4937 1.42382 25.3164 1.42382V0.610269H19.8481Z" fill="#39333E"/>
</svg>
